<svg xmlns="http://www.w3.org/2000/svg" viewBox="0 0 509 40.5"><defs><style>.cls-1{fill:#2b70ca;}.cls-2{fill:#34495e;}.cls-3{fill:#003473;}.cls-4{fill:#f3f2f2;}.cls-5{fill:#ffda44;}.cls-6{fill:#1c1e71;}.cls-7{fill:#5286f9;}.cls-8{fill:#ff5f00;}.cls-9{fill:#eb001b;}.cls-10{fill:#f79e1b;}.cls-11{fill:#fff;}.cls-12{fill:#228fe0;}.cls-13{fill:#f26e21;}.cls-14{fill:#e7e8e3;}.cls-15{fill:#009ddd;}.cls-16{fill:#ed1c2e;}.cls-17{fill:#0f549d;}.cls-18{fill:#b41f36;}.cls-19{fill:#329947;}.cls-20{fill:#a3adcc;}</style></defs><title>Asset 10</title><g id="Layer_2" data-name="Layer 2"><g id="Layer_1-2" data-name="Layer 1"><rect class="cls-1" x="148" y="0.5" width="62" height="39" rx="4" ry="4"/><rect class="cls-2" x="223" y="0.5" width="62" height="39" rx="4" ry="4"/><rect class="cls-3" x="300" y="1" width="62" height="39" rx="4" ry="4"/><rect class="cls-4" x="375" y="0.5" width="62" height="39" rx="4" ry="4"/><rect class="cls-5" y="1.5" width="62" height="39" rx="4" ry="4"/><path class="cls-6" d="M41,28.38c.47-1.12.89-2.17,1.33-3.21L46.65,15a1.83,1.83,0,0,1,2-1.32c.88,0,1.76,0,2.63,0a.55.55,0,0,1,.42.29q1.52,7.15,3,14.31a.81.81,0,0,1,0,.09H51.19c-.13-.59-.29-1.17-.38-1.76-.05-.34-.2-.41-.51-.4-1.36,0-2.71,0-4.07,0a.52.52,0,0,0-.59.42,12.58,12.58,0,0,1-.53,1.45.57.57,0,0,1-.42.32C43.51,28.39,42.32,28.38,41,28.38Zm9.06-5.23L49,17.82h-.13l-1.93,5.33Z"/><path class="cls-6" d="M7.34,14c.19-.13.32-.3.45-.3,2.1,0,4.2,0,6.29,0a1.75,1.75,0,0,1,1.68,1.55c.36,1.88.7,3.75,1,5.62a27.06,27.06,0,0,0,.62,2.71c.46-1.15.92-2.29,1.37-3.43.79-2,1.59-4,2.36-6a.63.63,0,0,1,.72-.48c1.11,0,2.23,0,3.43,0-.07.21-.11.36-.17.51Q22.25,21,19.36,27.92a.62.62,0,0,1-.71.47c-1,0-2,0-3,0-.45,0-.58-.17-.68-.55q-1.27-5-2.57-10a11.43,11.43,0,0,1-.3-1.15,1.93,1.93,0,0,0-1.38-1.63Z"/><path class="cls-6" d="M31,24.63a7.61,7.61,0,0,0,3.86.92,4.23,4.23,0,0,0,1.5-.31,1.18,1.18,0,0,0,.24-2.16,11.74,11.74,0,0,0-1.37-.81c-.49-.29-1-.54-1.47-.85-2.9-1.93-2.06-5.13-.19-6.58a7.19,7.19,0,0,1,4.16-1.44,10.08,10.08,0,0,1,4.15.64l-.65,3.06-.69-.23a6.91,6.91,0,0,0-3-.39,3.85,3.85,0,0,0-.75.16,1.27,1.27,0,0,0-1,1,1.11,1.11,0,0,0,.69,1.06c.88.54,1.79,1,2.67,1.55,3.1,1.86,2.16,5.65,0,7.06a7.65,7.65,0,0,1-4.86,1.24,35.88,35.88,0,0,1-3.69-.6.34.34,0,0,1-.32-.47C30.57,26.59,30.77,25.65,31,24.63Z"/><path class="cls-6" d="M30.8,13.64c-.2,1-.38,1.85-.57,2.73-.82,3.83-1.65,7.66-2.46,11.48-.08.43-.24.56-.67.54-1.06,0-2.13,0-3.24,0,.34-1.61.68-3.17,1-4.72.68-3.19,1.38-6.38,2-9.57.08-.37.23-.46.58-.45C28.57,13.66,29.65,13.64,30.8,13.64Z"/><rect class="cls-7" x="74" y="1.5" width="62" height="39" rx="4" ry="4"/><g id="_Group_" data-name=" Group "><rect class="cls-8" x="99.97" y="11.96" width="10.06" height="18.07"/><path id="_Path_" data-name=" Path " class="cls-9" d="M100.61,21A11.47,11.47,0,0,1,105,12,11.49,11.49,0,1,0,105,30,11.5,11.5,0,0,1,100.61,21Z"/><path class="cls-10" d="M123.59,21A11.5,11.5,0,0,1,105,30,11.52,11.52,0,0,0,105,12a11.49,11.49,0,0,1,18.59,9Z"/><path class="cls-10" d="M122.5,28.12v-.37h.15v-.08h-.38v.08h.16v.37Zm.73,0v-.45h-.11L123,28l-.13-.32h-.1v.45h.08v-.33l.13.29H123l.13-.29v.33Z"/></g><polygon class="cls-11" points="160.79 16.13 162.32 16.13 161.56 14.17 160.79 16.13"/><path class="cls-12" d="M179.84,14.45a1.36,1.36,0,0,0-.56-.07h-1.4V15.5h1.4a1.36,1.36,0,0,0,.56-.07.54.54,0,0,0,.21-.49A.39.39,0,0,0,179.84,14.45Z"/><path class="cls-11" d="M194.77,12.36v.84l-.42-.84h-3.28v.84l-.42-.84h-4.46a4.26,4.26,0,0,0-2,.42v-.42h-3.14v.42a2,2,0,0,0-1.32-.42H168.53l-.76,1.74L167,12.36h-3.56v.84l-.42-.84h-3l-1.39,3.28L157,19.27h3.56l.42-1.12h1l.42,1.12h4.05v-.84l.35.84h2l.35-.84v.84h9.7V17.45H179c.14,0,.14,0,.14.21V19.2h5v-.42a4.19,4.19,0,0,0,1.89.42h2.09l.42-1.12h1L190,19.2H194V18.15l.63,1.05h3.28V12.36Zm-23.58,5.86H170V14.38l-1.68,3.84h-1l-1.68-3.84v3.84h-2.37l-.49-1h-2.37L160,18.29h-1.32l2.09-4.95h1.74l2,4.67V13.34h1.88l1.54,3.35,1.39-3.35h2Zm4.74-3.84h-2.72v.91h2.65v1h-2.65v1h2.72v1.05H172V13.34h3.91Zm5.23,2a1.71,1.71,0,0,1,.21.9v1h-1.18v-.63a1.62,1.62,0,0,0-.21-1c-.21-.21-.42-.21-.84-.21h-1.26v1.81H176.7V13.34h2.65a2.62,2.62,0,0,1,1.39.21,1.18,1.18,0,0,1,.56,1.11,1.4,1.4,0,0,1-.83,1.33A1.34,1.34,0,0,1,181.16,16.41Zm2.1,1.81h-1.19V13.27h1.19Zm13.74,0h-1.67l-2.24-3.7v3.7h-2.37l-.42-1h-2.44l-.42,1.12h-1.32a2.44,2.44,0,0,1-1.68-.56,2.44,2.44,0,0,1-.63-1.88,2.87,2.87,0,0,1,.63-2,2.24,2.24,0,0,1,1.75-.55h1.11v1h-1.11a1.29,1.29,0,0,0-.91.28,1.64,1.64,0,0,0-.35,1.12,1.49,1.49,0,0,0,.35,1.18,1.12,1.12,0,0,0,.84.28h.49l1.6-3.83H190l2,4.67V13.41h1.74l2,3.42V13.41h1.18v4.81Z"/><polygon class="cls-12" points="188.28 16.13 189.88 16.13 189.12 14.17 188.28 16.13"/><polygon class="cls-12" points="176.42 26.18 176.42 22.2 174.6 24.15 176.42 26.18"/><polygon class="cls-11" points="168.95 22.69 168.95 23.59 171.53 23.59 171.53 24.57 168.95 24.57 168.95 25.62 171.81 25.62 173.14 24.15 171.88 22.69 168.95 22.69"/><path id="SVGCleanerId_0" data-name="SVGCleanerId 0" class="cls-12" d="M179.07,22.69H177.6v1.25h1.54c.42,0,.7-.21.7-.63A.71.71,0,0,0,179.07,22.69Z"/><path class="cls-11" d="M200.63,23.87V20.73H197.7a2.3,2.3,0,0,0-1.47.42v-.42H193a2.21,2.21,0,0,0-1.39.42v-.42H186v.42a2.71,2.71,0,0,0-1.54-.42h-3.77v.42a2.61,2.61,0,0,0-1.6-.42h-4.19l-1,1.05L173,20.73h-6.28v6.84h6.14l1-1.05.9,1.05h3.77V26H179a4.18,4.18,0,0,0,1.6-.21v1.88h3.14V25.83h.14c.21,0,.21,0,.21.21v1.6h9.49a2.74,2.74,0,0,0,1.61-.42v.42h3a3.11,3.11,0,0,0,1.67-.35h0A2.37,2.37,0,0,0,201,25.2,2.68,2.68,0,0,0,200.63,23.87ZM179,25h-1.4v1.67h-2.23L174,25.06l-1.47,1.6h-4.6V21.71h4.67l1.4,1.6,1.46-1.6h3.7c.91,0,2,.28,2,1.6S180.05,25,179,25Zm7-.28a1.59,1.59,0,0,1,.21.91v1H185V26a1.56,1.56,0,0,0-.21-1c-.14-.21-.42-.21-.84-.21H182.7v1.81h-1.19V21.64h2.65a2.82,2.82,0,0,1,1.4.21,1.24,1.24,0,0,1,.63,1.12,1.39,1.39,0,0,1-.84,1.32A1.2,1.2,0,0,1,186,24.71Zm4.81-2h-2.72v.9h2.65v1h-2.65v1h2.72v1h-3.91V21.64h3.91Zm2.93,3.9h-2.23v-1h2.23a.59.59,0,0,0,.49-.14.51.51,0,0,0,0-.7.59.59,0,0,0-.42-.14c-1.11-.07-2.44,0-2.44-1.53A1.45,1.45,0,0,1,193,21.57h2.31v1.19h-2.17a1,1,0,0,0-.48.07c-.14.07-.14.21-.14.34s.14.28.28.35a.85.85,0,0,0,.41.07h.63a1.78,1.78,0,0,1,1.33.42,1.45,1.45,0,0,1,.35,1C195.54,26.11,194.91,26.59,193.72,26.59Zm6-.48a2.06,2.06,0,0,1-1.46.48H196v-1h2.23a.59.59,0,0,0,.49-.14.51.51,0,0,0,0-.7.59.59,0,0,0-.42-.14c-1.12-.07-2.44,0-2.44-1.53,0-.7.41-1.47,1.67-1.47h2.3v1.19h-2.09a1,1,0,0,0-.49.07c-.14.07-.14.21-.14.34s.07.28.28.35a.89.89,0,0,0,.42.07h.63a1.76,1.76,0,0,1,1.32.42.07.07,0,0,1,.07.07,1.61,1.61,0,0,1,.28,1A1.42,1.42,0,0,1,199.72,26.11Z"/><path id="SVGCleanerId_1" data-name="SVGCleanerId 1" class="cls-12" d="M184.72,22.83a1.36,1.36,0,0,0-.56-.07h-1.39v1.11h1.39a1.36,1.36,0,0,0,.56-.07.54.54,0,0,0,.21-.49A.38.38,0,0,0,184.72,22.83Z"/><path class="cls-11" d="M179.84,14.45a1.36,1.36,0,0,0-.56-.07h-1.4V15.5h1.4a1.36,1.36,0,0,0,.56-.07.54.54,0,0,0,.21-.49A.39.39,0,0,0,179.84,14.45Z"/><polygon class="cls-11" points="188.28 16.13 189.88 16.13 189.12 14.17 188.28 16.13"/><polygon class="cls-11" points="176.42 26.18 176.42 22.2 174.6 24.15 176.42 26.18"/><path id="SVGCleanerId_0-2" data-name="SVGCleanerId 0" class="cls-11" d="M179.07,22.69H177.6v1.25h1.54c.42,0,.7-.21.7-.63A.71.71,0,0,0,179.07,22.69Z"/><path id="SVGCleanerId_1-2" data-name="SVGCleanerId 1" class="cls-11" d="M184.72,22.83a1.36,1.36,0,0,0-.56-.07h-1.39v1.11h1.39a1.36,1.36,0,0,0,.56-.07.54.54,0,0,0,.21-.49A.38.38,0,0,0,184.72,22.83Z"/><path class="cls-13" d="M259.6,20a4,4,0,0,0-4.09-4.08h0a4.1,4.1,0,1,0,4.1,4.1Z"/><path class="cls-14" d="M250.64,21.74a2.49,2.49,0,0,1-4.37-1.82,3,3,0,0,1,.77-2h0a2.44,2.44,0,0,1,1.68-.69,2.49,2.49,0,0,1,1.89.87V16.29a4,4,0,0,0-1.89-.47A4.61,4.61,0,0,0,246,16.93h0A4.35,4.35,0,0,0,244.61,20a4,4,0,0,0,4.11,4h.07a4.53,4.53,0,0,0,1.9-.47l-.05-1.81s0,.05,0,.07Z"/><polygon class="cls-14" points="264.78 16.95 264.78 16.95 262.99 21.34 260.94 16.14 259.28 16.14 262.52 24.1 263.38 24.1 266.78 16.14 265.12 16.14 264.78 16.95"/><polygon class="cls-14" points="267.41 19.61 267.41 23.86 271.67 23.86 271.75 23.86 271.75 22.6 270.4 22.6 268.99 22.6 268.99 21.18 268.99 20.47 271.67 20.47 271.67 19.13 268.99 19.13 268.99 17.48 271.75 17.48 271.75 16.14 267.41 16.14 267.41 19.61"/><path class="cls-14" d="M231.76,16.14h-2.21v7.72h2.21a4.29,4.29,0,0,0,2.76-.86,3.9,3.9,0,0,0,1.42-3C235.94,17.71,234.28,16.14,231.76,16.14ZM233.57,22a3,3,0,0,1-2,.63h-.47V17.48h.39a2.64,2.64,0,0,1,2.05.63,2.48,2.48,0,0,1,.87,1.89A2.33,2.33,0,0,1,233.57,22Z"/><rect class="cls-14" x="236.65" y="16.13" width="1.5" height="7.73"/><path class="cls-14" d="M241.93,19.13c-.94-.31-1.18-.55-1.18-.94a1,1,0,0,1,1.1-.87,1.55,1.55,0,0,1,1.27.63l.79-1a3.46,3.46,0,0,0-2.29-.86,2.31,2.31,0,0,0-2.45,2.2c0,1.11.48,1.58,1.9,2.13a3,3,0,0,1,1,.48.86.86,0,0,1,.47.79,1.09,1.09,0,0,1-1.18,1.1,1.81,1.81,0,0,1-1.65-1l-.95.95a3.09,3.09,0,0,0,2.68,1.5,2.49,2.49,0,0,0,2.68-2.52C244.14,20.32,243.67,19.76,241.93,19.13Z"/><path class="cls-14" d="M276,20.63a2.08,2.08,0,0,0,1.82-2.21c0-1.42-1-2.28-2.76-2.28h-2.29v7.72h1.5V20.79h.24l2.12,3.07h1.82Zm-1.26-.95h-.47V17.32h.47c.95,0,1.5.39,1.5,1.18S275.69,19.68,274.74,19.68Z"/><path class="cls-15" d="M330.63,29.43a12.19,12.19,0,1,0-8.16,3.15,12.12,12.12,0,0,0,8.16-3.15Z"/><path class="cls-15" d="M330.63,29.43a12.18,12.18,0,0,0,0-18.07V29.43Z"/><path class="cls-16" d="M338.82,8.21a12.17,12.17,0,0,0-8.19,3.15,15,15,0,0,0-1.22,1.29h2.46a12.74,12.74,0,0,1,.93,1.29h-4.32c-.26.43-.5.86-.71,1.28h5.73c.19.43.38.87.52,1.29h-6.75a9.89,9.89,0,0,0-.36,1.32h7.47a12.68,12.68,0,0,1,.26,2.58,12.1,12.1,0,0,1-.62,3.86h-6.75a13.69,13.69,0,0,0,.5,1.29h5.73a12.34,12.34,0,0,1-.7,1.29h-4.32a12.49,12.49,0,0,0,.93,1.29h2.46a11.61,11.61,0,0,1-1.24,1.29,12.19,12.19,0,1,0,8.19-21.22Z"/><path class="cls-11" d="M346.8,23a.4.4,0,0,1,.4-.38.37.37,0,0,1,.38.38.39.39,0,0,1-.38.41.42.42,0,0,1-.4-.41Zm.4.31a.3.3,0,0,0,.29-.31.28.28,0,0,0-.29-.28.29.29,0,0,0-.31.28.31.31,0,0,0,.31.31Zm-.05-.14h-.09v-.33h.14a.15.15,0,0,1,.1,0s.05.05.05.07a.09.09,0,0,1-.08.1l.08.14h-.1l-.05-.12h-.05v.12Zm0-.19h.1v-.07h-.1V23Z"/><polygon class="cls-11" points="320.94 23.44 319.41 23.44 320.32 18.69 318.24 23.44 316.86 23.44 316.62 18.71 315.71 23.44 314.32 23.44 315.5 17.25 317.88 17.25 318 21.07 319.67 17.25 322.13 17.25 320.94 23.44"/><path class="cls-11" d="M337.89,23.37a3.8,3.8,0,0,1-1.1.16c-.76,0-1.19-.38-1.19-1.09a2.58,2.58,0,0,1,0-.46l.09-.5.07-.38.7-3.84H338l-.21,1.14h.78l-.21,1.22h-.79l-.38,2.1a1,1,0,0,0-.05.21c0,.27.17.39.53.39a1.87,1.87,0,0,0,.4-.05l-.19,1.1Z"/><path class="cls-11" d="M342.31,18.45a.39.39,0,0,0-.17-.05c-.07,0-.12,0-.12,0h-.17a1.57,1.57,0,0,0-1.31.81l.14-.76H339.3l-.93,5h1.53c.54-3.08.76-3.63,1.5-3.63l.19,0,.17.05.55-1.43Z"/><path class="cls-11" d="M331.87,20c0,.62.36,1.07,1.17,1.39.62.26.72.33.72.57s-.29.45-.88.45a5,5,0,0,1-1.39-.21l-.19,1.17h.07l.26.07.41,0a5.84,5.84,0,0,0,.86.05c1.6,0,2.36-.53,2.36-1.67,0-.69-.31-1.1-1.09-1.41s-.72-.31-.72-.55.26-.4.76-.4a9.14,9.14,0,0,1,1.1.07l.22-1.15a9.32,9.32,0,0,0-1.34-.09c-1.72,0-2.32.76-2.32,1.69Z"/><path class="cls-11" d="M325.86,23.44h-1.25l0-.53a2.06,2.06,0,0,1-1.6.6,1.32,1.32,0,0,1-1.39-1.36c0-1.22,1-1.94,2.68-1.94a4.88,4.88,0,0,1,.62,0,.93.93,0,0,0,.05-.31c0-.34-.27-.46-1-.46a6.52,6.52,0,0,0-1.24.12l-.22.08-.14,0,.21-1.12a7,7,0,0,1,1.82-.26c1.31,0,2,.5,2,1.45a5,5,0,0,1-.12,1l-.31,1.8-.05.31-.05.26,0,.16,0,.15Zm-1.1-2.25-.34,0c-.86,0-1.29.26-1.29.76a.49.49,0,0,0,.53.53,1.18,1.18,0,0,0,1.1-1.27Z"/><path class="cls-11" d="M330.85,23.32a6,6,0,0,1-1.56.21c-1.69,0-2.57-.78-2.57-2.27a2.75,2.75,0,0,1,2.65-3,1.81,1.81,0,0,1,2,1.81,5.09,5.09,0,0,1-.17,1.25h-3v.16c0,.58.43.89,1.31.89a4.07,4.07,0,0,0,1.57-.31l-.23,1.24Zm-.82-3v-.27c0-.4-.26-.64-.71-.64s-.81.33-1,.91Z"/><path class="cls-11" d="M347,21.15a2.68,2.68,0,0,1-3,2.41,2.14,2.14,0,0,1-2.38-2.32,2.81,2.81,0,0,1,3-3,2.19,2.19,0,0,1,2.41,2.26,2.56,2.56,0,0,1-.05.63Zm-1.57-.65c0-.52-.22-1-.84-1s-1.24.91-1.24,1.72.34,1.12.86,1.12a1.47,1.47,0,0,0,1.17-1.22,2.48,2.48,0,0,0,0-.62Z"/><path class="cls-17" d="M390.57,31.71h5.65a4.51,4.51,0,0,0,4.28-4.29V8.29H395a4.19,4.19,0,0,0-4.47,4.41Z"/><path class="cls-18" d="M401.74,31.71h5.65a4.52,4.52,0,0,0,4.29-4.29V8.29h-5.47a4.19,4.19,0,0,0-4.47,4.41v19Z"/><path class="cls-19" d="M413.07,31.71h5.65A4.52,4.52,0,0,0,423,27.42V8.29h-5.47a4.19,4.19,0,0,0-4.47,4.41v19Z"/><path class="cls-4" d="M390.54,20.68H389c.44,1.74,2.49,3.1,4.78,3.1,2.11,0,5-1.18,5-3.41v-4H395.2v4A2.12,2.12,0,0,1,393,22.48,2.39,2.39,0,0,1,390.54,20.68Z"/><path class="cls-4" d="M421.52,21.49a1.75,1.75,0,0,1-1.86,1.67h-7.82V16.33h7.82a1.74,1.74,0,1,1,0,3.48A1.75,1.75,0,0,1,421.52,21.49Zm-6.7-2h2.42a1.18,1.18,0,1,0,0-2.36h-2.42Zm2.48,3a1.18,1.18,0,1,0,0-2.36h-2.48v2.36Z"/><path class="cls-4" d="M410,22v1.18h-6a3.42,3.42,0,1,1,0-6.83h6v1.24a19.81,19.81,0,0,0-3.48-.49,2.67,2.67,0,0,0,0,5.34A18.72,18.72,0,0,0,410,22Z"/><path class="cls-20" d="M509,8V4a4,4,0,0,0-4-4H451a4,4,0,0,0-4,4V8Z"/><path class="cls-20" d="M447,16V35a4,4,0,0,0,4,4h54a4,4,0,0,0,4-4V16Zm5,17a1,1,0,1,1,1-1A1,1,0,0,1,452,33Zm3,0a1,1,0,1,1,1-1A1,1,0,0,1,455,33Zm3,0a1,1,0,1,1,1-1A1,1,0,0,1,458,33Zm3,0a1,1,0,1,1,1-1A1,1,0,0,1,461,33Zm6-4H452a1,1,0,0,1,0-2h15a1,1,0,0,1,0,2Zm13,0h-9a1,1,0,0,1,0-2h9a1,1,0,0,1,0,2Z"/></g></g></svg>