<svg xmlns="http://www.w3.org/2000/svg" viewBox="0 0 62 39"><defs><style>.cls-1{fill:#2b70ca;}.cls-2{fill:#fff;}.cls-3{fill:#228fe0;}</style></defs><title>Asset 5</title><g id="Layer_2" data-name="Layer 2"><g id="Layer_1-2" data-name="Layer 1"><rect class="cls-1" width="62" height="39" rx="4" ry="4"/><polygon class="cls-2" points="12.79 15.63 14.32 15.63 13.56 13.67 12.79 15.63"/><path class="cls-3" d="M31.84,14a1.36,1.36,0,0,0-.56-.07h-1.4V15h1.4a1.36,1.36,0,0,0,.56-.07.54.54,0,0,0,.21-.49A.39.39,0,0,0,31.84,14Z"/><path class="cls-2" d="M46.77,11.86v.84l-.42-.84H43.07v.84l-.42-.84H38.19a4.26,4.26,0,0,0-2,.42v-.42H33.09v.42a2,2,0,0,0-1.32-.42H20.53l-.76,1.74L19,11.86H15.44v.84L15,11.86H12l-1.39,3.28L9,18.77h3.56L13,17.65h1l.42,1.12h4.05v-.84l.35.84h2l.35-.84v.84h9.7V17H31c.14,0,.14,0,.14.21V18.7h5v-.42a4.19,4.19,0,0,0,1.89.42h2.09l.42-1.12h1L42,18.7h4V17.65l.63,1.05h3.28V11.86ZM23.19,17.72H22V13.88l-1.68,3.84h-1L17.6,13.88v3.84H15.23l-.49-1H12.37L12,17.79H10.63l2.09-4.95h1.74l2,4.67V12.84H18.3l1.54,3.35,1.39-3.35h2Zm4.74-3.84H25.21v.91h2.65v1H25.21v1h2.72v1.05H24V12.84h3.91Zm5.23,2a1.71,1.71,0,0,1,.21.9v1H32.19v-.63a1.62,1.62,0,0,0-.21-1c-.21-.21-.42-.21-.84-.21H29.88v1.81H28.7V12.84h2.65a2.62,2.62,0,0,1,1.39.21,1.18,1.18,0,0,1,.56,1.11,1.4,1.4,0,0,1-.83,1.33A1.34,1.34,0,0,1,33.16,15.91Zm2.1,1.81H34.07V12.77h1.19Zm13.74,0H47.33L45.09,14v3.7H42.72l-.42-1H39.86l-.42,1.12H38.12a2.44,2.44,0,0,1-1.68-.56,2.44,2.44,0,0,1-.63-1.88,2.87,2.87,0,0,1,.63-2,2.24,2.24,0,0,1,1.75-.55H39.3v1H38.19a1.29,1.29,0,0,0-.91.28,1.64,1.64,0,0,0-.35,1.12,1.49,1.49,0,0,0,.35,1.18,1.12,1.12,0,0,0,.84.28h.49l1.6-3.83H42l2,4.67V12.91h1.74l2,3.42V12.91h1.18v4.81Z"/><polygon class="cls-3" points="40.28 15.63 41.88 15.63 41.12 13.67 40.28 15.63"/><polygon class="cls-3" points="28.42 25.68 28.42 21.7 26.6 23.65 28.42 25.68"/><polygon class="cls-2" points="20.95 22.19 20.95 23.09 23.53 23.09 23.53 24.07 20.95 24.07 20.95 25.12 23.81 25.12 25.14 23.65 23.88 22.19 20.95 22.19"/><path id="SVGCleanerId_0" data-name="SVGCleanerId 0" class="cls-3" d="M31.07,22.19H29.6v1.25h1.54c.42,0,.7-.21.7-.63A.71.71,0,0,0,31.07,22.19Z"/><path class="cls-2" d="M52.63,23.37V20.23H49.7a2.3,2.3,0,0,0-1.47.42v-.42H45a2.21,2.21,0,0,0-1.39.42v-.42H38v.42a2.71,2.71,0,0,0-1.54-.42H32.67v.42a2.61,2.61,0,0,0-1.6-.42H26.88l-1,1.05L25,20.23H18.72v6.84h6.14l1-1.05.9,1.05h3.77v-1.6H31a4.18,4.18,0,0,0,1.6-.21v1.88h3.14V25.33h.14c.21,0,.21,0,.21.21v1.6h9.49a2.74,2.74,0,0,0,1.61-.42v.42h3a3.11,3.11,0,0,0,1.67-.35h0A2.37,2.37,0,0,0,53,24.7,2.68,2.68,0,0,0,52.63,23.37ZM31,24.49H29.6v1.67H27.37L26,24.56l-1.47,1.6h-4.6V21.21h4.67l1.4,1.6,1.46-1.6h3.7c.91,0,2,.28,2,1.6S32.05,24.49,31,24.49Zm7-.28a1.59,1.59,0,0,1,.21.91v1H37v-.62a1.56,1.56,0,0,0-.21-1c-.14-.21-.42-.21-.84-.21H34.7v1.81H33.51V21.14h2.65a2.82,2.82,0,0,1,1.4.21,1.24,1.24,0,0,1,.63,1.12,1.39,1.39,0,0,1-.84,1.32A1.2,1.2,0,0,1,38,24.21Zm4.81-2H40.07v.9h2.65v1H40.07v1h2.72v1H38.88V21.14h3.91Zm2.93,3.9H43.49v-1h2.23a.59.59,0,0,0,.49-.14.51.51,0,0,0,0-.7.59.59,0,0,0-.42-.14c-1.11-.07-2.44,0-2.44-1.53A1.45,1.45,0,0,1,45,21.07h2.31v1.19H45.16a1,1,0,0,0-.48.07c-.14.07-.14.21-.14.34s.14.28.28.35a.85.85,0,0,0,.41.07h.63a1.78,1.78,0,0,1,1.33.42,1.45,1.45,0,0,1,.35,1C47.54,25.61,46.91,26.09,45.72,26.09Zm6-.48a2.06,2.06,0,0,1-1.46.48H48v-1h2.23a.59.59,0,0,0,.49-.14.51.51,0,0,0,0-.7.59.59,0,0,0-.42-.14c-1.12-.07-2.44,0-2.44-1.53,0-.7.41-1.47,1.67-1.47h2.3v1.19H49.77a1,1,0,0,0-.49.07c-.14.07-.14.21-.14.34s.07.28.28.35a.89.89,0,0,0,.42.07h.63a1.76,1.76,0,0,1,1.32.42.07.07,0,0,1,.07.07,1.61,1.61,0,0,1,.28,1A1.42,1.42,0,0,1,51.72,25.61Z"/><path id="SVGCleanerId_1" data-name="SVGCleanerId 1" class="cls-3" d="M36.72,22.33a1.36,1.36,0,0,0-.56-.07H34.77v1.11h1.39a1.36,1.36,0,0,0,.56-.07.54.54,0,0,0,.21-.49A.38.38,0,0,0,36.72,22.33Z"/><path class="cls-2" d="M31.84,14a1.36,1.36,0,0,0-.56-.07h-1.4V15h1.4a1.36,1.36,0,0,0,.56-.07.54.54,0,0,0,.21-.49A.39.39,0,0,0,31.84,14Z"/><polygon class="cls-2" points="40.28 15.63 41.88 15.63 41.12 13.67 40.28 15.63"/><polygon class="cls-2" points="28.42 25.68 28.42 21.7 26.6 23.65 28.42 25.68"/><path id="SVGCleanerId_0-2" data-name="SVGCleanerId 0" class="cls-2" d="M31.07,22.19H29.6v1.25h1.54c.42,0,.7-.21.7-.63A.71.71,0,0,0,31.07,22.19Z"/><path id="SVGCleanerId_1-2" data-name="SVGCleanerId 1" class="cls-2" d="M36.72,22.33a1.36,1.36,0,0,0-.56-.07H34.77v1.11h1.39a1.36,1.36,0,0,0,.56-.07.54.54,0,0,0,.21-.49A.38.38,0,0,0,36.72,22.33Z"/></g></g></svg>