<svg xmlns="http://www.w3.org/2000/svg" viewBox="0 0 62 39"><defs><style>.cls-1{fill:#a3adcc;}</style></defs><title>Asset 9</title><g id="Layer_2" data-name="Layer 2"><g id="Layer_1-2" data-name="Layer 1"><path class="cls-1" d="M62,8V4a4,4,0,0,0-4-4H4A4,4,0,0,0,0,4V8Z"/><path class="cls-1" d="M0,16V35a4,4,0,0,0,4,4H58a4,4,0,0,0,4-4V16ZM5,33a1,1,0,1,1,1-1A1,1,0,0,1,5,33Zm3,0a1,1,0,1,1,1-1A1,1,0,0,1,8,33Zm3,0a1,1,0,1,1,1-1A1,1,0,0,1,11,33Zm3,0a1,1,0,1,1,1-1A1,1,0,0,1,14,33Zm6-4H5a1,1,0,0,1,0-2H20a1,1,0,0,1,0,2Zm13,0H24a1,1,0,0,1,0-2h9a1,1,0,0,1,0,2Z"/></g></g></svg>