<svg xmlns="http://www.w3.org/2000/svg" viewBox="0 0 62 39"><defs><style>.cls-1{fill:#34495e;}.cls-2{fill:#f26e21;}.cls-3{fill:#e7e8e3;}</style></defs><title>Asset 4</title><g id="Layer_2" data-name="Layer 2"><g id="Layer_1-2" data-name="Layer 1"><rect class="cls-1" width="62" height="39" rx="4" ry="4"/><path class="cls-2" d="M36.6,19.48a4,4,0,0,0-4.09-4.08h0a4.1,4.1,0,1,0,4.1,4.1Z"/><path class="cls-3" d="M27.64,21.24a2.49,2.49,0,0,1-4.37-1.82,3,3,0,0,1,.77-2h0a2.44,2.44,0,0,1,1.68-.69,2.49,2.49,0,0,1,1.89.87V15.79a4,4,0,0,0-1.89-.47A4.61,4.61,0,0,0,23,16.43h0a4.35,4.35,0,0,0-1.43,3.07,4,4,0,0,0,4.11,4h.07a4.53,4.53,0,0,0,1.9-.47l-.05-1.81s0,.05,0,.07Z"/><polygon class="cls-3" points="41.78 16.45 41.78 16.45 39.99 20.84 37.94 15.63 36.28 15.63 39.52 23.6 40.38 23.6 43.78 15.63 42.12 15.63 41.78 16.45"/><polygon class="cls-3" points="44.41 19.11 44.41 23.36 48.67 23.36 48.74 23.36 48.74 22.1 47.4 22.1 45.98 22.1 45.98 20.68 45.98 19.97 48.67 19.97 48.67 18.63 45.98 18.63 45.98 16.98 48.74 16.98 48.74 15.63 44.41 15.63 44.41 19.11"/><path class="cls-3" d="M8.76,15.64H6.55v7.72H8.76a4.29,4.29,0,0,0,2.76-.86,3.9,3.9,0,0,0,1.42-3C12.94,17.21,11.28,15.64,8.76,15.64Zm1.81,5.83a3,3,0,0,1-2.05.63H8.05V17h.39a2.64,2.64,0,0,1,2.05.63,2.48,2.48,0,0,1,.87,1.89A2.33,2.33,0,0,1,10.57,21.47Z"/><rect class="cls-3" x="13.65" y="15.63" width="1.5" height="7.73"/><path class="cls-3" d="M18.93,18.63c-.94-.31-1.18-.55-1.18-.94a1,1,0,0,1,1.1-.87,1.55,1.55,0,0,1,1.27.63l.79-1a3.46,3.46,0,0,0-2.29-.86,2.31,2.31,0,0,0-2.45,2.2c0,1.11.48,1.58,1.9,2.13a3,3,0,0,1,1,.48.86.86,0,0,1,.47.79,1.09,1.09,0,0,1-1.18,1.1,1.81,1.81,0,0,1-1.65-1l-1,.95a3.09,3.09,0,0,0,2.68,1.5,2.49,2.49,0,0,0,2.68-2.52C21.14,19.82,20.67,19.26,18.93,18.63Z"/><path class="cls-3" d="M53,20.13a2.08,2.08,0,0,0,1.82-2.21c0-1.42-1-2.28-2.76-2.28H49.77v7.72h1.5V20.29h.24l2.12,3.07h1.82Zm-1.26-.95h-.47V16.82h.47c.95,0,1.5.39,1.5,1.18S52.69,19.18,51.74,19.18Z"/></g></g></svg>