<svg xmlns="http://www.w3.org/2000/svg" viewBox="0 0 62 39"><defs><style>.cls-1{fill:#f3f2f2;}.cls-2{fill:#0f549d;}.cls-3{fill:#b41f36;}.cls-4{fill:#329947;}</style></defs><title>Asset 8</title><g id="Layer_2" data-name="Layer 2"><g id="Layer_1-2" data-name="Layer 1"><rect class="cls-1" width="62" height="39" rx="4" ry="4"/><path class="cls-2" d="M15.57,31.21h5.65a4.51,4.51,0,0,0,4.28-4.29V7.79H20a4.19,4.19,0,0,0-4.47,4.41Z"/><path class="cls-3" d="M26.74,31.21h5.65a4.52,4.52,0,0,0,4.29-4.29V7.79H31.21a4.19,4.19,0,0,0-4.47,4.41v19Z"/><path class="cls-4" d="M38.07,31.21h5.65A4.52,4.52,0,0,0,48,26.92V7.79H42.54a4.19,4.19,0,0,0-4.47,4.41v19Z"/><path class="cls-1" d="M15.54,20.18H14c.44,1.74,2.49,3.1,4.78,3.1,2.11,0,5-1.18,5-3.41v-4H20.2v4A2.12,2.12,0,0,1,18,22,2.39,2.39,0,0,1,15.54,20.18Z"/><path class="cls-1" d="M46.52,21a1.75,1.75,0,0,1-1.86,1.67H36.84V15.83h7.82a1.74,1.74,0,0,1,0,3.48A1.75,1.75,0,0,1,46.52,21Zm-6.7-2h2.42a1.18,1.18,0,0,0,0-2.36H39.82Zm2.48,3a1.18,1.18,0,1,0,0-2.36H39.82v2.36Z"/><path class="cls-1" d="M35,21.48v1.18H29a3.42,3.42,0,1,1,0-6.83h6v1.24a19.81,19.81,0,0,0-3.48-.49,2.67,2.67,0,1,0,0,5.34A18.72,18.72,0,0,0,35,21.48Z"/></g></g></svg>