<svg xmlns="http://www.w3.org/2000/svg" viewBox="0 0 62 39"><defs><style>.cls-1{fill:#003473;}.cls-2{fill:#009ddd;}.cls-3{fill:#ed1c2e;}.cls-4{fill:#fff;}</style></defs><title>Asset 1</title><g id="Layer_2" data-name="Layer 2"><g id="Layer_1-2" data-name="Layer 1"><rect class="cls-1" width="62" height="39" rx="4" ry="4"/><path class="cls-2" d="M30.63,28.43a12.19,12.19,0,1,0-8.16,3.15,12.12,12.12,0,0,0,8.16-3.15Z"/><path class="cls-2" d="M30.63,28.43a12.18,12.18,0,0,0,0-18.07V28.43Z"/><path class="cls-3" d="M38.82,7.21a12.17,12.17,0,0,0-8.19,3.15,15,15,0,0,0-1.22,1.29h2.46a12.74,12.74,0,0,1,.93,1.29H28.48c-.26.43-.5.86-.71,1.28H33.5c.19.43.38.87.52,1.29H27.27a9.89,9.89,0,0,0-.36,1.32h7.47a12.68,12.68,0,0,1,.26,2.58A12.1,12.1,0,0,1,34,23.27H27.27a13.69,13.69,0,0,0,.5,1.29H33.5a12.34,12.34,0,0,1-.7,1.29H28.48a12.49,12.49,0,0,0,.93,1.29h2.46a11.61,11.61,0,0,1-1.24,1.29A12.19,12.19,0,1,0,38.82,7.21Z"/><path class="cls-4" d="M46.8,22a.4.4,0,0,1,.4-.38.37.37,0,0,1,.38.38.39.39,0,0,1-.38.41.42.42,0,0,1-.4-.41Zm.4.31a.3.3,0,0,0,.29-.31.28.28,0,0,0-.29-.28.29.29,0,0,0-.31.28.31.31,0,0,0,.31.31Zm-.05-.14h-.09v-.33h.14a.15.15,0,0,1,.1,0s.05.05.05.07a.09.09,0,0,1-.08.1l.08.14h-.1l0-.12h-.05v.12Zm0-.19h.1v-.07h-.1V22Z"/><polygon class="cls-4" points="20.94 22.44 19.41 22.44 20.32 17.69 18.24 22.44 16.86 22.44 16.62 17.71 15.71 22.44 14.32 22.44 15.49 16.25 17.88 16.25 18 20.07 19.67 16.25 22.13 16.25 20.94 22.44"/><path class="cls-4" d="M37.89,22.37a3.8,3.8,0,0,1-1.1.16c-.76,0-1.19-.38-1.19-1.09a2.58,2.58,0,0,1,0-.46l.09-.5.07-.38.7-3.84H38L37.8,17.4h.78l-.21,1.22h-.79l-.38,2.1a1,1,0,0,0-.05.21c0,.27.17.39.53.39a1.87,1.87,0,0,0,.4-.05l-.19,1.1Z"/><path class="cls-4" d="M42.31,17.45a.39.39,0,0,0-.17-.05c-.07,0-.12,0-.12,0h-.17a1.57,1.57,0,0,0-1.31.81l.14-.76H39.3l-.93,5H39.9c.54-3.08.76-3.63,1.5-3.63l.19,0,.17.05.55-1.43Z"/><path class="cls-4" d="M31.87,19c0,.62.36,1.07,1.17,1.39.62.26.72.33.72.57s-.29.45-.88.45a5,5,0,0,1-1.39-.21l-.19,1.17h.07l.26.07.41,0a5.84,5.84,0,0,0,.86.05c1.6,0,2.36-.53,2.36-1.67,0-.69-.31-1.1-1.09-1.41s-.72-.31-.72-.55.26-.4.76-.4a9.14,9.14,0,0,1,1.1.07l.22-1.15a9.32,9.32,0,0,0-1.34-.09c-1.72,0-2.32.76-2.32,1.69Z"/><path class="cls-4" d="M25.86,22.44H24.61l0-.53a2.06,2.06,0,0,1-1.6.6,1.32,1.32,0,0,1-1.39-1.36c0-1.22,1-1.94,2.68-1.94a4.88,4.88,0,0,1,.62,0,.93.93,0,0,0,.05-.31c0-.34-.27-.46-1-.46a6.52,6.52,0,0,0-1.24.12l-.22.08-.14,0,.21-1.12a7,7,0,0,1,1.82-.26c1.31,0,2,.5,2,1.45a5,5,0,0,1-.12,1L26,21.56l-.05.31-.05.26,0,.16,0,.15Zm-1.1-2.25-.34,0c-.86,0-1.29.26-1.29.76a.49.49,0,0,0,.53.53,1.18,1.18,0,0,0,1.1-1.27Z"/><path class="cls-4" d="M30.85,22.32a6,6,0,0,1-1.56.21c-1.69,0-2.57-.78-2.57-2.27a2.75,2.75,0,0,1,2.65-3,1.81,1.81,0,0,1,2,1.81,5.09,5.09,0,0,1-.17,1.25h-3v.16c0,.58.43.89,1.31.89a4.07,4.07,0,0,0,1.57-.31l-.23,1.24Zm-.82-3v-.27c0-.4-.26-.64-.71-.64s-.81.33-1,.91Z"/><path class="cls-4" d="M47,20.15a2.68,2.68,0,0,1-3,2.41,2.14,2.14,0,0,1-2.38-2.32,2.81,2.81,0,0,1,3-3,2.19,2.19,0,0,1,2.41,2.26,2.56,2.56,0,0,1,0,.63Zm-1.57-.65c0-.52-.22-1-.84-1s-1.24.91-1.24,1.72.34,1.12.86,1.12a1.47,1.47,0,0,0,1.17-1.22,2.48,2.48,0,0,0,.05-.62Z"/></g></g></svg>