<svg xmlns="http://www.w3.org/2000/svg" viewBox="0 0 62 39"><defs><style>.cls-1{fill:#5286f9;}.cls-2{fill:#ff5f00;}.cls-3{fill:#eb001b;}.cls-4{fill:#f79e1b;}</style></defs><title>Asset 6</title><g id="Layer_2" data-name="Layer 2"><g id="Layer_1-2" data-name="Layer 1"><rect class="cls-1" width="62" height="39" rx="4" ry="4"/><g id="_Group_" data-name=" Group "><rect class="cls-2" x="25.97" y="10.46" width="10.06" height="18.07"/><path id="_Path_" data-name=" Path " class="cls-3" d="M26.61,19.5a11.47,11.47,0,0,1,4.39-9,11.49,11.49,0,1,0,0,18.08A11.5,11.5,0,0,1,26.61,19.5Z"/><path class="cls-4" d="M49.59,19.5a11.5,11.5,0,0,1-18.59,9,11.52,11.52,0,0,0,0-18.08,11.49,11.49,0,0,1,18.59,9Z"/><path class="cls-4" d="M48.5,26.62v-.37h.15v-.08h-.38v.08h.16v.37Zm.73,0v-.45h-.11l-.14.32-.13-.32h-.1v.45h.08v-.33l.13.29H49l.13-.29v.33Z"/></g></g></g></svg>