<svg xmlns="http://www.w3.org/2000/svg" viewBox="0 0 62 39"><defs><style>.cls-1{fill:#ffda44;}.cls-2{fill:#1c1e71;}</style></defs><title>Asset 7</title><g id="Layer_2" data-name="Layer 2"><g id="Layer_1-2" data-name="Layer 1"><rect class="cls-1" width="62" height="39" rx="4" ry="4"/><path class="cls-2" d="M41,26.88c.47-1.12.89-2.17,1.33-3.21l4.29-10.21a1.83,1.83,0,0,1,2-1.32c.88,0,1.76,0,2.63,0a.55.55,0,0,1,.42.29q1.52,7.15,3,14.31a.81.81,0,0,1,0,.09H51.19c-.13-.59-.29-1.17-.38-1.76-.05-.34-.2-.41-.51-.4-1.36,0-2.71,0-4.07,0a.52.52,0,0,0-.59.42,12.58,12.58,0,0,1-.53,1.45.57.57,0,0,1-.42.32C43.51,26.89,42.32,26.88,41,26.88Zm9.06-5.23L49,16.32h-.13l-1.93,5.33Z"/><path class="cls-2" d="M7.34,12.45c.19-.13.32-.3.45-.3,2.1,0,4.2,0,6.29,0a1.75,1.75,0,0,1,1.68,1.55c.36,1.88.7,3.75,1,5.62A27.06,27.06,0,0,0,17.43,22c.46-1.15.92-2.29,1.37-3.43.79-2,1.59-4,2.36-6a.63.63,0,0,1,.72-.48c1.11,0,2.23,0,3.43,0-.07.21-.11.36-.17.51q-2.89,6.88-5.78,13.77a.62.62,0,0,1-.71.47c-1,0-2,0-3,0-.45,0-.58-.17-.68-.55q-1.27-5-2.57-10a11.43,11.43,0,0,1-.3-1.15,1.93,1.93,0,0,0-1.38-1.63Z"/><path class="cls-2" d="M31,23.13a7.61,7.61,0,0,0,3.86.92,4.23,4.23,0,0,0,1.5-.31,1.18,1.18,0,0,0,.24-2.16,11.74,11.74,0,0,0-1.37-.81c-.49-.29-1-.54-1.47-.85-2.9-1.93-2.06-5.13-.19-6.58a7.19,7.19,0,0,1,4.16-1.44,10.08,10.08,0,0,1,4.15.64l-.65,3.06-.69-.23a6.91,6.91,0,0,0-3-.39,3.85,3.85,0,0,0-.75.16,1.27,1.27,0,0,0-1,1,1.11,1.11,0,0,0,.69,1.06c.88.54,1.79,1,2.67,1.55,3.1,1.86,2.16,5.65,0,7.06a7.65,7.65,0,0,1-4.86,1.24,35.88,35.88,0,0,1-3.69-.6.34.34,0,0,1-.32-.47C30.57,25.09,30.77,24.15,31,23.13Z"/><path class="cls-2" d="M30.8,12.14c-.2,1-.38,1.85-.57,2.73-.82,3.83-1.65,7.66-2.46,11.48-.08.43-.24.56-.67.54-1.06,0-2.13,0-3.24,0,.34-1.61.68-3.17,1-4.72.68-3.19,1.38-6.38,2-9.57.08-.37.23-.46.58-.45C28.57,12.16,29.65,12.14,30.8,12.14Z"/></g></g></svg>